<?xml version="1.0" standalone="no"?>
<!DOCTYPE svg PUBLIC "-//W3C//DTD SVG 20010904//EN"
 "http://www.w3.org/TR/2001/REC-SVG-20010904/DTD/svg10.dtd">
<svg version="1.0" xmlns="http://www.w3.org/2000/svg"
 width="744.000000pt" height="768.000000pt" viewBox="0 0 744.000000 768.000000"
 preserveAspectRatio="xMidYMid meet">

<g transform="translate(0.000000,768.000000) scale(0.100000,-0.100000)"
fill="#000000" stroke="none">
<path d="M0 3840 l0 -3840 3720 0 3720 0 0 3840 0 3840 -3720 0 -3720 0 0
-3840z m5545 3068 c241 -59 382 -120 557 -240 151 -104 335 -306 425 -468 90
-163 169 -422 193 -630 8 -66 10 -588 8 -1690 l-4 -1595 -26 -110 c-48 -204
-114 -369 -201 -501 -173 -263 -456 -478 -761 -579 -261 -86 -369 -104 -711
-114 -399 -11 -2706 -13 -2865 -2 -229 16 -544 103 -725 200 -197 105 -321
210 -466 393 -165 207 -241 381 -290 658 -20 113 -20 148 -19 1725 0 1013 5
1638 11 1685 15 111 74 337 112 427 89 211 272 442 452 572 213 154 454 250
730 290 33 5 827 8 1765 7 l1705 -2 110 -26z"/>
<path d="M2215 6559 c-191 -9 -332 -47 -524 -144 -279 -140 -495 -379 -587
-647 -12 -37 -33 -116 -46 -175 l-23 -108 0 -1540 0 -1540 32 -119 c18 -65 48
-155 67 -201 93 -229 321 -471 559 -595 118 -60 334 -127 456 -139 68 -7 605
-11 1566 -11 1641 0 1530 -5 1771 76 158 52 203 73 300 140 173 118 295 243
404 417 81 129 141 318 160 501 13 127 13 2676 0 2906 -15 271 -78 466 -212
662 -182 265 -442 431 -788 503 -79 17 -190 18 -1540 19 -800 1 -1518 -2
-1595 -5z m3060 -293 c130 -36 158 -46 224 -81 131 -69 130 -70 -107 -83 -226
-13 -2910 -17 -3365 -5 -290 7 -296 10 -150 84 103 52 225 89 328 99 39 4 732
6 1540 5 1336 -2 1475 -4 1530 -19z m-2755 -338 c736 -13 680 -13 858 0 234
18 566 15 714 -5 67 -10 146 -17 173 -16 28 1 205 6 395 12 190 5 480 14 645
21 165 7 349 10 409 8 l110 -3 63 -83 c35 -45 63 -86 63 -91 0 -4 -159 -11
-352 -16 -499 -10 -871 -28 -875 -40 -2 -6 22 -26 53 -45 31 -19 75 -49 98
-66 l42 -31 195 2 c106 2 354 6 550 10 350 8 357 7 377 -13 18 -18 42 -98 42
-141 0 -24 -71 -29 -564 -37 -226 -4 -386 -11 -386 -16 0 -6 27 -40 60 -76 46
-51 67 -67 88 -68 15 0 201 -1 415 -2 l387 -2 0 -88 0 -89 -265 -6 c-146 -4
-305 -4 -353 0 l-86 6 19 -29 c11 -16 34 -56 51 -89 l31 -60 244 -6 c134 -3
270 -7 302 -8 l57 -1 0 -95 0 -95 -167 1 c-93 0 -211 4 -263 8 -52 4 -96 7
-97 6 -2 -1 6 -24 17 -51 11 -27 24 -67 30 -90 10 -41 11 -41 63 -48 28 -3
134 -6 235 -6 l182 0 0 -95 0 -95 -214 0 -215 0 5 -32 c2 -18 5 -58 7 -88 l3
-55 207 -3 207 -2 0 -100 0 -100 -204 0 c-113 0 -207 -3 -209 -7 -3 -5 -8 -45
-11 -90 l-7 -83 214 0 215 0 4 -92 c2 -51 4 -94 4 -95 -1 -1 -106 -3 -234 -5
l-234 -4 -18 -50 c-9 -27 -25 -66 -34 -88 -9 -21 -16 -39 -16 -40 0 -1 119 -2
265 -1 l265 2 0 -97 0 -97 -57 -7 c-31 -4 -167 -6 -302 -6 l-245 1 -19 -38
c-11 -21 -33 -54 -48 -74 -55 -70 -69 -67 321 -64 l350 3 0 -97 0 -98 -215 -7
c-118 -4 -312 -6 -430 -5 l-217 2 -19 -29 c-10 -16 -40 -48 -66 -71 -27 -22
-45 -45 -40 -49 14 -15 222 -23 606 -23 l383 -1 -7 -83 c-3 -45 -9 -91 -12
-101 -5 -19 -21 -19 -632 -13 l-627 7 -44 -25 c-25 -14 -81 -43 -125 -65 -92
-46 -133 -75 -122 -87 5 -4 330 -6 722 -5 509 3 715 1 719 -7 10 -15 -49 -122
-85 -157 l-30 -29 -952 -4 c-668 -2 -1004 0 -1127 9 -142 9 -191 9 -260 -2
-91 -14 -276 -15 -1357 -10 l-602 3 -25 30 c-27 32 -96 145 -96 157 0 4 325 8
722 10 397 1 725 5 728 9 3 3 -3 10 -13 17 -11 6 -49 30 -85 54 -153 99 -186
104 -682 95 -190 -3 -438 -2 -552 2 l-206 7 -16 87 c-9 47 -16 91 -16 97 0 7
157 10 506 11 278 1 508 4 511 7 3 3 -31 41 -76 86 l-81 80 -430 0 -431 0 3
101 3 101 353 0 c222 0 352 3 352 10 0 5 -14 29 -31 54 -16 24 -37 60 -45 79
l-14 35 -310 0 -310 0 0 99 c0 87 2 100 18 104 9 2 129 1 266 -1 211 -4 248
-3 243 9 -29 71 -47 118 -52 142 l-6 28 -232 -1 -232 -1 -3 100 -3 101 222 0
222 0 -7 33 c-4 17 -9 58 -13 90 l-6 57 -207 0 c-114 0 -209 2 -211 4 -2 2 -3
45 -1 95 l3 91 210 0 209 0 0 44 c0 24 3 64 6 90 l7 46 -217 0 -216 0 0 95 0
95 237 2 237 3 11 55 c6 30 19 69 28 87 9 18 17 35 17 38 0 3 -119 2 -265 -1
l-265 -7 0 99 0 100 307 3 c169 1 311 5 314 7 4 2 14 25 23 50 9 26 27 62 41
80 17 22 21 35 14 40 -6 3 -100 5 -208 3 -108 -2 -262 -3 -343 -1 l-148 2 0
91 0 92 358 -3 c519 -5 475 -8 505 43 14 23 39 54 56 70 17 15 31 31 31 36 0
4 -179 11 -397 15 -219 3 -433 9 -475 13 -89 6 -84 -4 -51 117 l17 59 572 -7
c570 -8 572 -8 583 13 6 11 55 48 108 83 l98 63 -355 8 c-195 4 -480 8 -632
10 -152 1 -279 4 -282 7 -10 10 22 60 81 127 l58 66 185 -7 c102 -4 444 -12
760 -18z m-226 -4069 c258 -8 569 -9 840 -5 237 4 852 9 1366 12 514 2 983 5
1042 7 157 3 162 -14 23 -86 -94 -49 -291 -115 -384 -129 -54 -8 -494 -12
-1531 -12 -1643 -1 -1491 -8 -1704 81 -110 46 -236 117 -236 133 0 14 32 18
105 14 39 -2 254 -9 479 -15z"/>
<path d="M3580 5720 c-303 -24 -675 -165 -913 -347 -111 -85 -277 -255 -359
-368 -226 -311 -349 -730 -317 -1088 14 -166 26 -228 75 -377 63 -196 136
-333 280 -528 144 -195 274 -310 501 -445 249 -147 468 -220 743 -248 179 -17
343 4 575 74 274 83 545 246 731 438 271 282 442 636 490 1018 34 267 -9 559
-121 826 -168 401 -439 689 -817 869 -294 141 -580 198 -868 176z m1125 -967
c0 -298 -3 -545 -7 -549 -5 -4 -32 5 -61 19 -59 30 -73 33 -80 14 -10 -26 69
-95 238 -209 43 -29 80 -58 82 -63 4 -15 -185 -146 -439 -305 -62 -39 -151
-98 -198 -130 -47 -33 -112 -74 -145 -92 -33 -17 -131 -74 -218 -125 -87 -52
-205 -116 -263 -143 -58 -27 -124 -65 -147 -83 -23 -19 -73 -55 -112 -81 -38
-26 -97 -67 -130 -91 -33 -25 -96 -59 -140 -76 -68 -27 -89 -30 -150 -27 -142
8 -245 81 -301 216 -24 56 -28 82 -29 157 0 76 4 98 26 145 68 146 254 250
397 223 31 -6 64 -14 72 -17 13 -6 15 81 18 736 1 409 2 747 2 751 0 5 13 -1
29 -13 17 -11 46 -27 66 -36 33 -14 42 -13 103 5 80 25 235 62 727 177 204 47
424 98 490 114 66 16 131 28 145 27 l25 -2 0 -542z m-172 -1118 l22 -25 74 21
c40 11 76 17 80 14 12 -12 13 -326 1 -392 -25 -146 -112 -240 -276 -299 -80
-29 -136 -30 -216 -3 -163 55 -232 166 -213 343 8 76 24 99 63 90 15 -3 58 -7
95 -9 38 -3 73 -7 78 -11 6 -3 7 -24 3 -50 -12 -81 14 -114 89 -114 81 0 131
70 142 200 8 102 28 260 32 260 2 0 14 -11 26 -25z"/>
<path d="M4330 4984 c-129 -33 -301 -71 -380 -84 -101 -17 -256 -68 -287 -94
l-28 -24 20 -22 c11 -12 51 -40 90 -63 71 -41 449 -289 495 -325 27 -21 212
-122 223 -122 4 0 7 171 7 380 l0 380 -22 -1 c-13 -1 -66 -12 -118 -25z"/>
<path d="M3372 3972 c2 -369 6 -673 10 -677 9 -9 68 23 173 95 127 86 237 157
415 267 264 163 468 295 469 305 1 3 -45 34 -101 69 -94 57 -301 190 -631 406
-70 46 -162 103 -205 126 -42 24 -89 51 -105 61 l-28 19 3 -671z"/>
<path d="M2946 3280 c-87 -34 -106 -66 -75 -127 36 -73 106 -92 172 -48 72 49
88 125 36 169 -36 31 -66 32 -133 6z"/>
</g>
</svg>
